<svg width="23" height="19" fill="none" xmlns="http://www.w3.org/2000/svg"><path d="M3.658.715A2.025 2.025 0 0 0 2.167 0 2.012 2.012 0 0 0 .657.67a2.497 2.497 0 0 0-.641 1.66c-.008.626.208 1.23.6 1.68l4.875 5.31L.616 14.63a2.35 2.35 0 0 0-.456.755 2.548 2.548 0 0 0 0 1.784c.106.283.261.54.456.755.194.217.424.39.678.508a1.9 1.9 0 0 0 1.603 0c.253-.118.484-.29.678-.508l6.25-6.958c.195-.215.35-.472.456-.755a2.548 2.548 0 0 0 0-1.783 2.352 2.352 0 0 0-.456-.755L3.658.715Zm17.708 6.958L15.116.715a1.99 1.99 0 0 0-1.479-.682 1.99 1.99 0 0 0-1.48.682 2.47 2.47 0 0 0-.612 1.647c0 .617.22 1.21.613 1.646L16.95 9.32l-4.792 5.311a2.35 2.35 0 0 0-.456.755 2.548 2.548 0 0 0 0 1.784c.106.283.26.54.456.755.194.217.424.39.678.508a1.9 1.9 0 0 0 1.602 0c.254-.118.485-.29.678-.508l6.25-6.958c.201-.21.363-.46.476-.74a2.557 2.557 0 0 0 .045-1.784 2.37 2.37 0 0 0-.437-.77h-.084Z" fill="#fff"/></svg>