<svg width="21" height="20" fill="none" xmlns="http://www.w3.org/2000/svg"><path d="M10.118 5c-.999 0-1.975.293-2.805.843a5.01 5.01 0 0 0-1.86 2.244 4.955 4.955 0 0 0-.287 2.889c.195.97.675 1.86 1.382 2.56a5.064 5.064 0 0 0 2.585 1.368c.98.193 1.994.094 2.917-.285a5.039 5.039 0 0 0 2.266-1.841 4.966 4.966 0 0 0-.628-6.314A5.074 5.074 0 0 0 10.118 5Zm0 8a3.05 3.05 0 0 1-1.683-.506 3.007 3.007 0 0 1-1.116-1.346 2.973 2.973 0 0 1 .657-3.27 3.057 3.057 0 0 1 3.301-.65 3.023 3.023 0 0 1 1.36 1.105 2.98 2.98 0 0 1-.377 3.788 3.045 3.045 0 0 1-2.142.879Zm5.049-9a1.017 1.017 0 0 0-.933.617.99.99 0 0 0 .219 1.09A1.013 1.013 0 0 0 16.177 5a.995.995 0 0 0-.296-.707A1.015 1.015 0 0 0 15.167 4Zm4.988 2.24a7.444 7.444 0 0 0-.485-2.5 5.554 5.554 0 0 0-1.272-1.94A5.62 5.62 0 0 0 16.44.54a7.648 7.648 0 0 0-2.524-.48C12.935 0 12.612 0 10.118 0 7.623 0 7.3 0 6.32.06a7.65 7.65 0 0 0-2.525.48A5.62 5.62 0 0 0 1.837 1.8 5.555 5.555 0 0 0 .565 3.74a7.446 7.446 0 0 0-.485 2.5C.02 7.22.02 7.54.02 10s0 2.78.06 3.76c.017.855.18 1.7.485 2.5a5.555 5.555 0 0 0 1.272 1.94 5.62 5.62 0 0 0 1.96 1.26 7.65 7.65 0 0 0 2.524.48c1.01 0 1.303.06 3.797.06s2.817 0 3.797-.06a7.65 7.65 0 0 0 2.524-.48 5.62 5.62 0 0 0 1.96-1.26 5.554 5.554 0 0 0 1.271-1.94c.305-.8.468-1.645.485-2.5 0-1 .06-1.3.06-3.76s0-2.78-.06-3.76Zm-2.02 7.43a5.95 5.95 0 0 1-.353 1.86c-.179.472-.462.9-.828 1.25-.352.363-.784.64-1.262.81a5.856 5.856 0 0 1-1.889.36c-.949 0-1.242.05-3.695.05H6.422a6.112 6.112 0 0 1-1.889-.35 3.436 3.436 0 0 1-1.262-.82 3.257 3.257 0 0 1-.818-1.25 5.69 5.69 0 0 1-.363-1.86V6.38a5.81 5.81 0 0 1 .363-1.87c.175-.47.454-.893.818-1.24.352-.363.784-.64 1.262-.81a5.857 5.857 0 0 1 1.889-.36C7.37 2 7.664 2 10.118 2h3.696c.648.016 1.29.138 1.898.36.474.173.902.45 1.252.81.367.349.647.776.818 1.25.247.609.387 1.255.414 1.91 0 1 .05 1.25.05 3.67s-.05 2.71-.05 3.67h-.06Z" fill="#6B7280"/></svg>