<svg width="30" height="40" fill="none" xmlns="http://www.w3.org/2000/svg"><g clip-path="url(#a)"><g filter="url(#b)"><ellipse cx="15.5" cy="39.5" rx="4.5" ry="2.5" fill="#000" fill-opacity=".12"/></g><mask id="d" maskUnits="userSpaceOnUse" x="2" y="0" width="27" height="40" fill="#000"><path fill="#fff" d="M2 0h27v40H2z"/><path fill-rule="evenodd" clip-rule="evenodd" d="M28 13.5c0 2.825-.937 5.432-2.518 7.525-.562.782-1.321 1.613-2.162 2.534C20.4 26.757 16.5 31.03 16.5 38a1 1 0 1 1-2 0c0-6.971-3.9-11.243-6.82-14.44-.84-.922-1.6-1.753-2.162-2.535A12.445 12.445 0 0 1 3 13.5C3 6.596 8.596 1 15.5 1S28 6.596 28 13.5Z"/></mask><path fill-rule="evenodd" clip-rule="evenodd" d="M28 13.5c0 2.825-.937 5.432-2.518 7.525-.562.782-1.321 1.613-2.162 2.534C20.4 26.757 16.5 31.03 16.5 38a1 1 0 1 1-2 0c0-6.971-3.9-11.243-6.82-14.44-.84-.922-1.6-1.753-2.162-2.535A12.445 12.445 0 0 1 3 13.5C3 6.596 8.596 1 15.5 1S28 6.596 28 13.5Z" fill="#EA352B"/><path d="m25.482 21.025-.798-.603-.007.01-.007.01.812.583Zm-2.162 2.534.739.674-.739-.674Zm-15.64 0 .738-.674-.738.674Zm-2.162-2.534.812-.584-.007-.01-.007-.009-.798.603Zm20.762.603A13.445 13.445 0 0 0 29 13.5h-2c0 2.6-.862 4.997-2.316 6.922l1.596 1.206Zm-2.221 2.605c.828-.907 1.632-1.785 2.235-2.624L24.67 20.44c-.52.725-1.236 1.51-2.088 2.444l1.477 1.348ZM17.5 38c0-6.55 3.634-10.564 6.559-13.767l-1.477-1.348C19.666 26.078 15.5 30.606 15.5 38h2Zm-2 2a2 2 0 0 0 2-2h-2v2Zm-2-2a2 2 0 0 0 2 2v-2h-2ZM6.941 24.233C9.866 27.436 13.5 31.451 13.5 38h2c0-7.393-4.166-11.922-7.082-15.115l-1.477 1.348ZM4.706 21.61c.603.839 1.407 1.717 2.235 2.624l1.477-1.348c-.853-.934-1.568-1.72-2.088-2.444L4.706 21.61ZM2 13.5c0 3.05 1.013 5.867 2.72 8.128l1.596-1.206A11.445 11.445 0 0 1 4 13.5H2ZM15.5 0C8.044 0 2 6.044 2 13.5h2C4 7.149 9.149 2 15.5 2V0ZM29 13.5C29 6.044 22.956 0 15.5 0v2C21.851 2 27 7.149 27 13.5h2Z" fill="url(#c)" mask="url(#d)"/><circle cx="15.5" cy="13.5" r="4.5" fill="#000" fill-opacity=".4"/></g><defs><linearGradient id="c" x1="15.5" y1="1" x2="15.5" y2="39" gradientUnits="userSpaceOnUse"><stop stop-color="#fff"/><stop offset="1" stop-color="#fff" stop-opacity=".35"/></linearGradient><clipPath id="a"><path fill="#fff" d="M0 0h30v40H0z"/></clipPath><filter id="b" x="9" y="35" width="13" height="9" filterUnits="userSpaceOnUse" color-interpolation-filters="sRGB"><feFlood flood-opacity="0" result="BackgroundImageFix"/><feBlend in="SourceGraphic" in2="BackgroundImageFix" result="shape"/><feGaussianBlur stdDeviation="1" result="effect1_foregroundBlur_10_30"/></filter></defs></svg>