<svg width="17" height="21" fill="none" xmlns="http://www.w3.org/2000/svg"><path d="M8.159.712a7.841 7.841 0 0 0-5.582 2.344A8.055 8.055 0 0 0 .265 8.712c0 5.4 6.957 11.5 7.253 11.76a.98.98 0 0 0 1.282 0c.346-.26 7.253-6.36 7.253-11.76a8.055 8.055 0 0 0-2.312-5.656A7.842 7.842 0 0 0 8.159.712Zm0 17.65c-2.102-2-5.92-6.31-5.92-9.65 0-1.59.623-3.117 1.733-4.242A5.881 5.881 0 0 1 8.16 2.712c1.57 0 3.076.633 4.186 1.758a6.041 6.041 0 0 1 1.734 4.242c0 3.34-3.818 7.66-5.92 9.65Zm0-13.65a3.91 3.91 0 0 0-2.193.675 3.989 3.989 0 0 0-1.454 1.795 4.05 4.05 0 0 0-.224 2.31 4.017 4.017 0 0 0 1.08 2.049 3.93 3.93 0 0 0 2.02 1.095c.767.154 1.56.075 2.281-.228a3.959 3.959 0 0 0 1.772-1.473 4.038 4.038 0 0 0-.491-5.051 3.92 3.92 0 0 0-2.791-1.172Zm0 6c-.39 0-.772-.117-1.096-.337a1.994 1.994 0 0 1-.727-.897 2.025 2.025 0 0 1 .427-2.18 1.95 1.95 0 0 1 2.15-.434c.362.152.67.408.887.737a2.02 2.02 0 0 1-.246 2.526 1.96 1.96 0 0 1-1.395.585Z" fill="#151522"/></svg>