<svg width="21" height="16" fill="none" xmlns="http://www.w3.org/2000/svg"><path d="M17.186 0H3.05C2.246 0 1.475.316.907.879A2.985 2.985 0 0 0 .02 3v10c0 .796.319 1.559.887 2.121A3.045 3.045 0 0 0 3.049 16h14.137c.804 0 1.574-.316 2.142-.879A2.985 2.985 0 0 0 20.216 13V3c0-.796-.32-1.559-.888-2.121A3.044 3.044 0 0 0 17.186 0Zm-.414 2-5.937 5.88a1.011 1.011 0 0 1-1.106.219 1.01 1.01 0 0 1-.328-.219L3.463 2h13.31Zm1.424 11c0 .265-.106.52-.296.707-.189.188-.446.293-.714.293H3.05c-.268 0-.525-.105-.714-.293A.995.995 0 0 1 2.039 13V3.41l5.938 5.88a3.045 3.045 0 0 0 2.14.877c.803 0 1.573-.315 2.141-.877l5.938-5.88V13Z" fill="#6B7280"/></svg>