<svg width="60" height="60" viewBox="0 0 60 60" fill="none" xmlns="http://www.w3.org/2000/svg">
<rect x="2.5" y="2.5" width="55" height="55" rx="27.5" fill="#151522"/>
<rect x="2.5" y="2.5" width="55" height="55" rx="27.5" stroke="#151522" stroke-width="5"/>
<path d="M38.1667 26.2292L27.75 20.2083C27.1169 19.8428 26.3988 19.6503 25.6677 19.6501C24.9367 19.6499 24.2185 19.8421 23.5852 20.2073C22.9519 20.5725 22.4258 21.0978 22.0598 21.7307C21.6938 22.3635 21.5008 23.0815 21.5 23.8125V35.8542C21.5008 36.5848 21.6936 37.3025 22.0593 37.9351C22.425 38.5677 22.9506 39.093 23.5833 39.4583C24.2168 39.824 24.9353 40.0166 25.6667 40.0166C26.3981 40.0166 27.1166 39.824 27.75 39.4583L38.1667 33.4375C38.7981 33.0712 39.3222 32.5455 39.6865 31.913C40.0509 31.2804 40.2426 30.5633 40.2426 29.8333C40.2426 29.1034 40.0509 28.3862 39.6865 27.7537C39.3222 27.1212 38.7981 26.5954 38.1667 26.2292V26.2292ZM36.0833 29.8333L25.6667 35.8542V23.8125L36.0833 29.8333ZM29.8333 9C25.7129 9 21.685 10.2219 18.259 12.511C14.8329 14.8002 12.1627 18.054 10.5859 21.8608C9.00903 25.6676 8.59646 29.8564 9.40032 33.8977C10.2042 37.939 12.1884 41.6511 15.102 44.5647C18.0155 47.4783 21.7277 49.4625 25.769 50.2664C29.8102 51.0702 33.9991 50.6576 37.8059 49.0808C41.6127 47.504 44.8664 44.8337 47.1556 41.4077C49.4448 37.9817 50.6667 33.9538 50.6667 29.8333C50.6667 27.0975 50.1278 24.3884 49.0808 21.8608C48.0339 19.3331 46.4993 17.0365 44.5647 15.1019C42.6302 13.1674 40.3335 11.6328 37.8059 10.5858C35.2783 9.53887 32.5692 9 29.8333 9V9ZM29.8333 46.5C26.537 46.5 23.3147 45.5225 20.5738 43.6912C17.833 41.8598 15.6968 39.2568 14.4354 36.2114C13.1739 33.166 12.8438 29.8148 13.4869 26.5818C14.13 23.3488 15.7174 20.3791 18.0482 18.0482C20.3791 15.7173 23.3488 14.13 26.5818 13.4869C29.8149 12.8438 33.166 13.1739 36.2114 14.4353C39.2568 15.6968 41.8598 17.833 43.6912 20.5738C45.5225 23.3146 46.5 26.537 46.5 29.8333C46.5 34.2536 44.7441 38.4928 41.6185 41.6184C38.4929 44.7441 34.2536 46.5 29.8333 46.5V46.5Z" fill="#DFBB41"/>
</svg>
