<svg width="22" height="21" fill="none" xmlns="http://www.w3.org/2000/svg"><path d="M20.951 14.614a4.725 4.725 0 0 1-2.981-2.173 1 1 0 1 0-1.656 1.122 7.688 7.688 0 0 0 2.402 2.334c-.135.025-.281.05-.442.075a1.366 1.366 0 0 0-1.076 1.207 6.06 6.06 0 0 0-2.014-.004c-.72.159-1.39.486-1.958.956a3.484 3.484 0 0 1-2.104.871h-.26a3.484 3.484 0 0 1-2.106-.873 4.627 4.627 0 0 0-1.929-.95 6.393 6.393 0 0 0-2.04.005 1.368 1.368 0 0 0-1.062-1.21 12.693 12.693 0 0 1-.435-.075c.68-.393 1.287-.9 1.795-1.498a6.71 6.71 0 0 0 .635-.869 1 1 0 0 0-1.696-1.06 4.91 4.91 0 0 1-.448.616 4.252 4.252 0 0 1-2.553 1.528 1.224 1.224 0 0 0-1.032 1.236c0 .184.04.366.115.533.316.716 1.156 1.168 2.785 1.474l.03.13c.03.119.058.239.093.348a1.289 1.289 0 0 0 1.278.945c.204-.005.406-.034.603-.087a4.67 4.67 0 0 1 1.588-.046c.415.123.798.334 1.123.618a5.413 5.413 0 0 0 3.255 1.235h.261a5.444 5.444 0 0 0 3.274-1.248 2.915 2.915 0 0 1 1.131-.61 3.49 3.49 0 0 1 .624-.052c.322 0 .642.035.955.106.203.038.41.06.616.064a1.256 1.256 0 0 0 1.245-.923c.038-.122.067-.24.095-.354l.03-.124c1.625-.306 2.468-.755 2.768-1.44a1.17 1.17 0 0 0 .127-.48 1.244 1.244 0 0 0-1.036-1.327Zm-18.15-4.466a1.004 1.004 0 0 0 1.057-.484c.396.202.83.317 1.275.338.47.006.925-.173 1.265-.499a1 1 0 0 0 .317-.79l-.036-.602a9.902 9.902 0 0 1 .156-3.561 4.26 4.26 0 0 1 3.966-2.544l.387-.004a4.264 4.264 0 0 1 3.96 2.547 9.917 9.917 0 0 1 .157 3.564l-.01.163-.027.444a1.028 1.028 0 0 0 .312.778c.337.325.786.505 1.254.503a3.272 3.272 0 0 0 1.241-.365 1.001 1.001 0 0 0 .916.599h.018a1 1 0 0 0 .982-1.018 1.642 1.642 0 0 0-1.185-1.451 1.914 1.914 0 0 0-1.477.01 9.472 9.472 0 0 0-.354-4.042A6.236 6.236 0 0 0 11.179.002l-.393.004a6.222 6.222 0 0 0-5.777 3.73 9.586 9.586 0 0 0-.352 4.094l-.111-.052a1.909 1.909 0 0 0-2.537 1.199 1.001 1.001 0 0 0 .793 1.171Z" fill="#DFBB41"/></svg>