<svg width="23" height="21" fill="none" xmlns="http://www.w3.org/2000/svg"><path d="M21.166 14.614a4.793 4.793 0 0 1-1.728-.783 4.74 4.74 0 0 1-1.282-1.39 1.018 1.018 0 0 0-1.402-.268.992.992 0 0 0-.27 1.389 7.73 7.73 0 0 0 2.425 2.335c-.136.025-.284.05-.445.075-.288.06-.548.21-.743.427a1.36 1.36 0 0 0-.344.78 6.18 6.18 0 0 0-2.035-.004 4.707 4.707 0 0 0-1.977.956 3.536 3.536 0 0 1-2.124.871h-.263a3.537 3.537 0 0 1-2.126-.873 4.691 4.691 0 0 0-1.948-.95 6.518 6.518 0 0 0-2.06.005 1.361 1.361 0 0 0-.338-.778 1.384 1.384 0 0 0-.735-.432 12.933 12.933 0 0 1-.439-.075c.687-.393 1.3-.9 1.813-1.498.236-.272.45-.563.64-.869a.992.992 0 0 0-.32-1.377 1.019 1.019 0 0 0-1.391.317 4.913 4.913 0 0 1-.453.616 4.302 4.302 0 0 1-2.578 1.528 1.24 1.24 0 0 0-.755.424 1.217 1.217 0 0 0-.287.812c0 .184.04.366.116.533.319.716 1.167 1.168 2.812 1.474l.031.13c.029.119.059.239.093.348.077.278.247.522.48.693.235.172.52.26.81.252.206-.005.41-.034.61-.087a4.761 4.761 0 0 1 1.604-.046c.418.123.805.334 1.134.618a5.498 5.498 0 0 0 3.287 1.235h.263a5.529 5.529 0 0 0 3.306-1.248c.33-.285.72-.493 1.143-.61.208-.035.418-.053.63-.052.324 0 .648.035.964.106.205.038.413.06.621.064.284.008.562-.08.79-.247.228-.167.392-.405.468-.676.038-.122.068-.24.095-.354l.032-.124c1.64-.306 2.49-.755 2.795-1.44.076-.15.12-.313.128-.48.025-.311-.069-.62-.263-.865a1.258 1.258 0 0 0-.784-.462ZM2.84 10.148a1.023 1.023 0 0 0 1.067-.484c.4.202.839.317 1.287.338.476.006.935-.173 1.278-.499a1 1 0 0 0 .32-.79l-.037-.602a9.808 9.808 0 0 1 .158-3.561 4.271 4.271 0 0 1 1.615-1.87 4.333 4.333 0 0 1 2.39-.674l.391-.004a4.337 4.337 0 0 1 2.387.677 4.276 4.276 0 0 1 1.612 1.87 9.82 9.82 0 0 1 .158 3.564l-.01.163-.028.444a1.02 1.02 0 0 0 .316.778c.34.325.794.505 1.266.503a3.328 3.328 0 0 0 1.253-.365 1.018 1.018 0 0 0 .925.599h.018c.268-.005.523-.115.709-.306a.995.995 0 0 0 .283-.712 1.633 1.633 0 0 0-.369-.911 1.659 1.659 0 0 0-.828-.54 1.949 1.949 0 0 0-1.491.01 9.384 9.384 0 0 0-.358-4.042 6.252 6.252 0 0 0-2.358-2.74 6.342 6.342 0 0 0-3.495-.992l-.396.004A6.329 6.329 0 0 0 7.417 1a6.239 6.239 0 0 0-2.35 2.735 9.498 9.498 0 0 0-.354 4.095c-.035-.015-.072-.033-.113-.052a1.944 1.944 0 0 0-2.176.516 1.904 1.904 0 0 0-.386.683c-.05.26.006.53.156.75.15.22.382.371.645.421Z" fill="#6B7280"/></svg>